<svg fill="#a8ceed" xmlns="http://www.w3.org/2000/svg" viewBox="0 0 48 48" id="youtube"><g data-name="5-Youtube"><path d="M41 0H7a7.008 7.008 0 0 0-7 7v34a7.008 7.008 0 0 0 7 7h34a7.008 7.008 0 0 0 7-7V7a7.008 7.008 0 0 0-7-7Zm5 41a5.006 5.006 0 0 1-5 5H7a5.006 5.006 0 0 1-5-5V7a5.006 5.006 0 0 1 5-5h34a5.006 5.006 0 0 1 5 5Z"></path><path d="M30 38H14v-1a1 1 0 0 0-2 0v1H6a1 1 0 0 0 0 2h6v1a1 1 0 0 0 2 0v-1h16a1 1 0 0 0 0-2zm6 0h-2a1 1 0 0 0 0 2h2a1 1 0 0 0 0-2zm6 0h-2a1 1 0 0 0 0 2h2a1 1 0 0 0 0-2zM19.474 26.851a1 1 0 0 0 .973.044l8-4a1 1 0 0 0 0-1.789l-8-4A1 1 0 0 0 19 18v8a1 1 0 0 0 .474.851zM21 19.618 25.764 22 21 24.382z"></path></g></svg>