<svg fill="#a8ceed" xmlns="http://www.w3.org/2000/svg" width="24" height="24" id="youtube"><path d="M7.6 5.7H3.8c-.3 0-.5-.2-.5-.5V1.4c0-.3.2-.5.5-.5s.5.2.5.5v3.3h2.8V1.4c0-.3.2-.5.5-.5s.5.2.5.5v3.8c0 .3-.3.5-.5.5z"></path><path d="M5.7 9.5c-.3 0-.5-.2-.5-.5V5.2c0-.3.2-.5.5-.5s.5.2.5.5V9c0 .3-.3.5-.5.5zM6.4 15H3.8c-.3 0-.5-.2-.5-.5s.2-.5.5-.5h2.6c.3 0 .5.2.5.5s-.2.5-.5.5z"></path><path d="M5.1 17.6c-.3 0-.5-.2-.5-.5v-2.6c0-.3.2-.5.5-.5s.5.2.5.5v2.6c0 .3-.2.5-.5.5z"></path><path d="M5.1 20.2c-.3 0-.5-.2-.5-.5v-2.6c0-.3.2-.5.5-.5s.5.2.5.5v2.6c0 .3-.2.5-.5.5zM11 17.6c-.3 0-.5-.2-.5-.5v-2.6c0-.3.2-.5.5-.5s.5.2.5.5v2.6c0 .3-.2.5-.5.5zM8.4 17.6c-.3 0-.5-.2-.5-.5v-2.6c0-.3.2-.5.5-.5s.5.2.5.5v2.6c0 .3-.2.5-.5.5z"></path><path d="M11 20.2H8.4c-.3 0-.5-.2-.5-.5v-2.6c0-.3.2-.5.5-.5s.5.2.5.5v2.1h1.6v-2.1c0-.3.2-.5.5-.5s.5.2.5.5v2.6c0 .3-.2.5-.5.5zM15.6 17.6H13c-.3 0-.5-.2-.5-.5v-2.6c0-.3.2-.5.5-.5h2.6c.3 0 .5.2.5.5v2.6c0 .3-.2.5-.5.5zm-2.1-1h1.6V15h-1.6v1.6z"></path><path d="M15.6 20.2H13c-.3 0-.5-.2-.5-.5v-2.6c0-.3.2-.5.5-.5h2.6c.3 0 .5.2.5.5v2.6c0 .3-.2.5-.5.5zm-2.1-1h1.6v-1.6h-1.6v1.6zM20.2 17.6h-2.6c-.3 0-.5-.2-.5-.5v-2.6c0-.3.2-.5.5-.5h2.6c.3 0 .5.2.5.5s-.2.5-.5.5h-2.1v1.6h2.1c.3 0 .5.2.5.5s-.2.5-.5.5z"></path><path d="M20.2 20.2h-2.6c-.3 0-.5-.2-.5-.5v-2.6c0-.3.2-.5.5-.5h2.6c.3 0 .5.2.5.5s-.2.5-.5.5h-2.1v1.6h2.1c.3 0 .5.2.5.5s-.2.5-.5.5zM13.9 5.7c-.3 0-.5-.2-.5-.5V1.9h-2.8v3.3c0 .3-.2.5-.5.5s-.5-.2-.5-.5V1.4c0-.3.2-.5.5-.5h3.8c.3 0 .5.2.5.5v3.8c0 .3-.2.5-.5.5z"></path><path d="M13.9 9.5h-3.8c-.3 0-.5-.2-.5-.5V5.2c0-.3.2-.5.5-.5s.5.2.5.5v3.3h2.8V5.2c0-.3.2-.5.5-.5s.5.2.5.5V9c0 .3-.2.5-.5.5zM20.2 5.7c-.3 0-.5-.2-.5-.5V1.4c0-.3.2-.5.5-.5s.5.2.5.5v3.8c0 .3-.2.5-.5.5zM16.4 5.7c-.3 0-.5-.2-.5-.5V1.4c0-.3.2-.5.5-.5s.5.2.5.5v3.8c0 .3-.2.5-.5.5z"></path><path d="M20.2 9.5h-3.8c-.3 0-.5-.2-.5-.5V5.2c0-.3.2-.5.5-.5s.5.2.5.5v3.3h2.8V5.2c0-.3.2-.5.5-.5s.5.2.5.5V9c0 .3-.2.5-.5.5zM19.9 23.1H4.1c-2 0-3.6-1.6-3.6-3.6v-4.8c0-2 1.6-3.6 3.6-3.6H20c2 0 3.6 1.6 3.6 3.6v4.8c-.1 2-1.7 3.6-3.7 3.6zM4.1 12.2c-1.4 0-2.6 1.2-2.6 2.6v4.8c0 1.4 1.1 2.6 2.6 2.6H20c1.4 0 2.6-1.1 2.6-2.6v-4.8c0-1.4-1.1-2.6-2.6-2.6H4.1z"></path></svg>